<?xml version="1.0" encoding="UTF-8" standalone="no" ?>
<!DOCTYPE svg PUBLIC "-//W3C//DTD SVG 1.1//EN" "http://www.w3.org/Graphics/SVG/1.1/DTD/svg11.dtd">
<svg xmlns="http://www.w3.org/2000/svg" xmlns:xlink="http://www.w3.org/1999/xlink" version="1.1" width="521.8055419921874" height="214.94" xml:space="preserve">
<desc>Created with Fabric.js 1.6.0-rc.1</desc>
<defs></defs>
<g style="stroke: none; stroke-width: 1; stroke-dasharray: none; stroke-linecap: butt; stroke-linejoin: miter; stroke-miterlimit: 10; fill: none; fill-rule: nonzero; opacity: 1;" transform="translate(10 10) scale(0.38 0.38)" >
  <path d="M 411.733 209.067 c -9.6 -69.333 -67.2 -125.867 -137.6 -133.333 C 179.2 65.067 99.2 138.667 99.2 231.467 c 0 48 21.333 90.667 55.467 119.467 c 14.933 12.8 25.6 29.867 30.933 49.067 h 140.8 c 6.4 -19.2 17.067 -36.267 33.067 -50.133 C 397.867 315.733 419.2 264.533 411.733 209.067 z" style="stroke: none; stroke-width: 1; stroke-dasharray: none; stroke-linecap: butt; stroke-linejoin: miter; stroke-miterlimit: 10; fill: #E8EAE9; fill-rule: nonzero; opacity: 1;" transform=" matrix(1 0 0 1 0 0) " stroke-linecap="round" />
  <path d="M 218.667 484.267 C 224 500.267 238.933 512 256 512 s 32 -11.733 37.333 -27.733 H 218.667 z" style="stroke: none; stroke-width: 1; stroke-dasharray: none; stroke-linecap: butt; stroke-linejoin: miter; stroke-miterlimit: 10; fill: #344A5E; fill-rule: nonzero; opacity: 1;" transform=" matrix(1 0 0 1 0 0) " stroke-linecap="round" />
  <path d="M 302.933 488.533 H 208 c -12.8 0 -23.467 -10.667 -23.467 -23.467 V 400 h 140.8 v 65.067 C 326.4 477.867 315.733 488.533 302.933 488.533 z" style="stroke: none; stroke-width: 1; stroke-dasharray: none; stroke-linecap: butt; stroke-linejoin: miter; stroke-miterlimit: 10; fill: #415A6B; fill-rule: nonzero; opacity: 1;" transform=" matrix(1 0 0 1 0 0) " stroke-linecap="round" />
  <path d="M 328.533 426.667 H 185.6 c -6.4 0 -12.8 -5.333 -12.8 -12.8 v -2.133 c 0 -6.4 5.333 -12.8 12.8 -12.8 h 142.933 c 6.4 0 12.8 5.333 12.8 12.8 v 2.133 C 341.333 421.333 336 426.667 328.533 426.667 z" style="stroke: none; stroke-width: 1; stroke-dasharray: none; stroke-linecap: butt; stroke-linejoin: miter; stroke-miterlimit: 10; fill: #344A5E; fill-rule: nonzero; opacity: 1;" transform=" matrix(1 0 0 1 0 0) " stroke-linecap="round" />
  <path d="M 328.533 471.467 H 185.6 c -6.4 0 -12.8 -5.333 -12.8 -12.8 v -2.133 c 0 -6.4 5.333 -12.8 12.8 -12.8 h 142.933 c 6.4 0 12.8 5.333 12.8 12.8 v 2.133 C 341.333 466.133 336 471.467 328.533 471.467 z" style="stroke: none; stroke-width: 1; stroke-dasharray: none; stroke-linecap: butt; stroke-linejoin: miter; stroke-miterlimit: 10; fill: #344A5E; fill-rule: nonzero; opacity: 1;" transform=" matrix(1 0 0 1 0 0) " stroke-linecap="round" />
  <path d="M 153.6 240 v -17.067 l 61.867 -28.8 v 19.2 l -40.533 19.2 l 40.533 19.2 v 19.2 L 153.6 240 z" style="stroke: none; stroke-width: 1; stroke-dasharray: none; stroke-linecap: butt; stroke-linejoin: miter; stroke-miterlimit: 10; fill: #F3705A; fill-rule: nonzero; opacity: 1;" transform=" matrix(1 0 0 1 0 0) " stroke-linecap="round" />
  <path d="M 274.133 179.2 h 18.133 l -53.333 116.267 H 220.8 L 274.133 179.2 z" style="stroke: none; stroke-width: 1; stroke-dasharray: none; stroke-linecap: butt; stroke-linejoin: miter; stroke-miterlimit: 10; fill: #F3705A; fill-rule: nonzero; opacity: 1;" transform=" matrix(1 0 0 1 0 0) " stroke-linecap="round" />
  <path d="M 358.4 221.867 v 17.067 l -61.867 28.8 v -19.2 l 40.533 -19.2 l -40.533 -19.2 v -19.2 L 358.4 221.867 z" style="stroke: none; stroke-width: 1; stroke-dasharray: none; stroke-linecap: butt; stroke-linejoin: miter; stroke-miterlimit: 10; fill: #F3705A; fill-rule: nonzero; opacity: 1;" transform=" matrix(1 0 0 1 0 0) " stroke-linecap="round" />
  <path d="M 256 0 L 256 0 c -6.4 0 -11.733 5.333 -11.733 11.733 V 38.4 c 0 6.4 5.333 11.733 11.733 11.733 l 0 0 c 6.4 0 11.733 -5.333 11.733 -11.733 V 11.733 C 267.733 5.333 262.4 0 256 0 z" style="stroke: none; stroke-width: 1; stroke-dasharray: none; stroke-linecap: butt; stroke-linejoin: miter; stroke-miterlimit: 10; fill: #E8EAE9; fill-rule: nonzero; opacity: 1;" transform=" matrix(1 0 0 1 0 0) " stroke-linecap="round" />
  <path d="M 140.8 30.933 L 140.8 30.933 c -5.333 3.2 -7.467 10.667 -4.267 16 l 12.8 23.467 c 3.2 5.333 10.667 7.467 16 4.267 l 0 0 c 5.333 -3.2 7.467 -10.667 4.267 -16 l -12.8 -22.4 C 153.6 29.867 146.133 27.733 140.8 30.933 z" style="stroke: none; stroke-width: 1; stroke-dasharray: none; stroke-linecap: butt; stroke-linejoin: miter; stroke-miterlimit: 10; fill: #E8EAE9; fill-rule: nonzero; opacity: 1;" transform=" matrix(1 0 0 1 0 0) " stroke-linecap="round" />
  <path d="M 55.467 115.2 L 55.467 115.2 c -3.2 5.333 -1.067 12.8 4.267 16 l 22.4 12.8 c 5.333 3.2 12.8 1.067 16 -4.267 l 0 0 c 3.2 -5.333 1.067 -12.8 -4.267 -16 l -22.4 -12.8 C 66.133 107.733 58.667 109.867 55.467 115.2 z" style="stroke: none; stroke-width: 1; stroke-dasharray: none; stroke-linecap: butt; stroke-linejoin: miter; stroke-miterlimit: 10; fill: #E8EAE9; fill-rule: nonzero; opacity: 1;" transform=" matrix(1 0 0 1 0 0) " stroke-linecap="round" />
  <path d="M 24.533 231.467 L 24.533 231.467 c 0 6.4 5.333 11.733 11.733 11.733 h 26.667 c 6.4 0 11.733 -5.333 11.733 -11.733 l 0 0 c 0 -6.4 -5.333 -11.733 -11.733 -11.733 H 36.267 C 29.867 219.733 24.533 225.067 24.533 231.467 z" style="stroke: none; stroke-width: 1; stroke-dasharray: none; stroke-linecap: butt; stroke-linejoin: miter; stroke-miterlimit: 10; fill: #E8EAE9; fill-rule: nonzero; opacity: 1;" transform=" matrix(1 0 0 1 0 0) " stroke-linecap="round" />
  <path d="M 55.467 346.667 L 55.467 346.667 c 3.2 5.333 10.667 7.467 16 4.267 l 22.4 -12.8 c 5.333 -3.2 7.467 -10.667 4.267 -16 l 0 0 c -3.2 -5.333 -10.667 -7.467 -16 -4.267 l -22.4 12.8 C 54.4 333.867 52.267 341.333 55.467 346.667 z" style="stroke: none; stroke-width: 1; stroke-dasharray: none; stroke-linecap: butt; stroke-linejoin: miter; stroke-miterlimit: 10; fill: #E8EAE9; fill-rule: nonzero; opacity: 1;" transform=" matrix(1 0 0 1 0 0) " stroke-linecap="round" />
  <path d="M 456.533 346.667 L 456.533 346.667 c 3.2 -5.333 1.067 -12.8 -4.267 -16 l -22.4 -12.8 c -5.333 -3.2 -12.8 -1.067 -16 4.267 l 0 0 c -3.2 5.333 -1.067 12.8 4.267 16 l 22.4 12.8 C 445.867 355.2 453.333 353.067 456.533 346.667 z" style="stroke: none; stroke-width: 1; stroke-dasharray: none; stroke-linecap: butt; stroke-linejoin: miter; stroke-miterlimit: 10; fill: #E8EAE9; fill-rule: nonzero; opacity: 1;" transform=" matrix(1 0 0 1 0 0) " stroke-linecap="round" />
  <path d="M 487.467 231.467 L 487.467 231.467 c 0 -6.4 -5.333 -11.733 -11.733 -11.733 h -26.667 c -6.4 0 -11.733 5.333 -11.733 11.733 l 0 0 c 0 6.4 5.333 11.733 11.733 11.733 h 26.667 C 482.133 243.2 487.467 237.867 487.467 231.467 z" style="stroke: none; stroke-width: 1; stroke-dasharray: none; stroke-linecap: butt; stroke-linejoin: miter; stroke-miterlimit: 10; fill: #E8EAE9; fill-rule: nonzero; opacity: 1;" transform=" matrix(1 0 0 1 0 0) " stroke-linecap="round" />
  <path d="M 456.533 115.2 L 456.533 115.2 c -3.2 -5.333 -10.667 -7.467 -16 -4.267 l -22.4 12.8 c -5.333 3.2 -7.467 10.667 -4.267 16 l 0 0 c 3.2 5.333 10.667 7.467 16 4.267 l 22.4 -12.8 C 457.6 129.067 459.733 121.6 456.533 115.2 z" style="stroke: none; stroke-width: 1; stroke-dasharray: none; stroke-linecap: butt; stroke-linejoin: miter; stroke-miterlimit: 10; fill: #E8EAE9; fill-rule: nonzero; opacity: 1;" transform=" matrix(1 0 0 1 0 0) " stroke-linecap="round" />
  <path d="M 371.2 30.933 L 371.2 30.933 c -5.333 -3.2 -12.8 -1.067 -16 4.267 l -12.8 22.4 c -4.267 6.4 -2.133 13.867 4.267 17.067 l 0 0 c 5.333 3.2 12.8 1.067 16 -4.267 l 12.8 -22.4 C 379.733 41.6 377.6 34.133 371.2 30.933 z" style="stroke: none; stroke-width: 1; stroke-dasharray: none; stroke-linecap: butt; stroke-linejoin: miter; stroke-miterlimit: 10; fill: #E8EAE9; fill-rule: nonzero; opacity: 1;" transform=" matrix(1 0 0 1 0 0) " stroke-linecap="round" />
</g>
  <g transform="translate(365.23 111.31) scale(3.52 3.53)">
   <text font-family="'Choda'" font-size="40" font-weight="normal" style="stroke: none; stroke-width: 1; stroke-dasharray: none; stroke-linecap: butt; stroke-linejoin: miter; stroke-miterlimit: 10; fill: #949494; fill-rule: nonzero; opacity: 1;" ><tspan x="-42.14" y="8.98" style="stroke: none; stroke-width: 0; stroke-dasharray: none; stroke-linecap: butt; stroke-linejoin: miter; stroke-miterlimit: 4; fill: #949494; fill-rule: ; opacity: 1;">j</tspan><tspan x="-31.3" y="8.98" style="stroke: none; stroke-width: 0; stroke-dasharray: none; stroke-linecap: butt; stroke-linejoin: miter; stroke-miterlimit: 4; fill: #949494; fill-rule: ; opacity: 1;">m</tspan><tspan x="3.06" y="8.98" style="stroke: none; stroke-width: 0; stroke-dasharray: none; stroke-linecap: butt; stroke-linejoin: miter; stroke-miterlimit: 4; fill: #949494; fill-rule: ; opacity: 1;">b</tspan><tspan x="26.9" y="8.98" style="stroke: none; stroke-width: 0; stroke-dasharray: none; stroke-linecap: butt; stroke-linejoin: miter; stroke-miterlimit: 4; fill: #949494; fill-rule: ; opacity: 1;">l</tspan></text>
 </g>
</svg>
